<svg width="16" height="13" viewBox="0 0 16 13" fill="none" xmlns="http://www.w3.org/2000/svg">
<path d="M15.2 11.65L8.74995 6.81252V6.13002C9.30285 5.9655 9.78607 5.62324 10.1247 5.15627C10.4634 4.68929 10.6386 4.12366 10.6232 3.54701C10.6079 2.97036 10.4028 2.41487 10.0397 1.96661C9.6766 1.51835 9.17583 1.20233 8.61495 1.06752C8.22864 0.975893 7.8266 0.972838 7.43894 1.05858C7.05128 1.14432 6.68803 1.31664 6.37639 1.56263C6.06475 1.80863 5.81278 2.12193 5.63936 2.47908C5.46594 2.83623 5.37555 3.22799 5.37495 3.62502H6.87495C6.87495 3.00252 7.37745 2.50002 7.99995 2.50002C8.62245 2.50002 9.12495 3.00252 9.12495 3.62502C9.12495 4.25502 8.60745 4.76502 7.97745 4.75002C7.57245 4.74252 7.24995 5.08752 7.24995 5.49252V6.81252L0.79995 11.65C0.22245 12.085 0.52995 13 1.24995 13H14.75C15.47 13 15.7775 12.085 15.2 11.65ZM3.49995 11.5L7.99995 8.12502L12.5 11.5H3.49995Z" fill="#678CD4"/>
</svg>
