<svg width="16" height="12" viewBox="0 0 16 12" fill="none" xmlns="http://www.w3.org/2000/svg">
<path d="M15.2 10.6501L8.74995 5.81264V5.13014C9.30285 4.96562 9.78607 4.62337 10.1247 4.15639C10.4634 3.68941 10.6386 3.12379 10.6232 2.54713C10.6079 1.97048 10.4028 1.415 10.0397 0.966733C9.6766 0.51847 9.17583 0.202452 8.61495 0.0676379C8.22864 -0.0239851 7.8266 -0.02704 7.43894 0.0587018C7.05128 0.144444 6.68803 0.316761 6.37639 0.562756C6.06475 0.80875 5.81278 1.12205 5.63936 1.4792C5.46594 1.83635 5.37555 2.22811 5.37495 2.62514H6.87495C6.87495 2.00264 7.37745 1.50014 7.99995 1.50014C8.62245 1.50014 9.12495 2.00264 9.12495 2.62514C9.12495 3.25514 8.60745 3.76514 7.97745 3.75014C7.57245 3.74264 7.24995 4.08764 7.24995 4.49264V5.81264L0.79995 10.6501C0.22245 11.0851 0.52995 12.0001 1.24995 12.0001H14.75C15.47 12.0001 15.7775 11.0851 15.2 10.6501ZM3.49995 10.5001L7.99995 7.12514L12.5 10.5001H3.49995Z" fill="#678CD4"/>
</svg>
