<svg width="69" height="22" viewBox="0 0 69 22" fill="none" xmlns="http://www.w3.org/2000/svg">
<path d="M63.3393 16.7996C60.2183 16.7996 57.6789 14.1977 57.6789 11C57.6789 10.3571 58.1877 9.83637 58.8146 9.83637C59.4415 9.83637 59.9498 10.3571 59.9498 11C59.9498 12.9148 61.4705 14.4729 63.3393 14.4729C65.2086 14.4729 66.7293 12.9148 66.7293 11C66.7293 9.08466 65.2086 7.52713 63.3393 7.52713H14.5195C13.892 7.52713 13.3838 7.00582 13.3838 6.3635C13.3838 5.72117 13.892 5.20044 14.5195 5.20044H63.3393C66.4607 5.20044 69.0002 7.80175 69.0002 11C69.0002 14.1977 66.4607 16.7996 63.3393 16.7996Z" fill="white"/>
<path d="M11.6447 12.3382H1.14467C0.512811 12.3382 0 11.8723 0 11.2976C0 10.7223 0.512811 10.2563 1.14467 10.2563H11.6447C12.2766 10.2563 12.7888 10.7223 12.7888 11.2976C12.7888 11.8723 12.2766 12.3382 11.6447 12.3382Z" fill="white"/>
<path d="M41.9224 21.2607C38.7991 21.2607 36.2587 18.7922 36.2587 15.7585C36.2587 15.1491 36.7672 14.6545 37.3945 14.6545C38.0218 14.6545 38.5309 15.1491 38.5309 15.7585C38.5309 17.5751 40.0519 19.0533 41.9224 19.0533C43.7923 19.0533 45.314 17.5751 45.314 15.7585C45.314 13.9419 43.7923 12.4637 41.9224 12.4637H16.0065C15.3792 12.4637 14.8707 11.9697 14.8707 11.3598C14.8707 10.7504 15.3792 10.2563 16.0065 10.2563H41.9224C45.0452 10.2563 47.5862 12.7248 47.5862 15.7585C47.5862 18.7922 45.0452 21.2607 41.9224 21.2607Z" fill="white"/>
<path d="M30.9811 17.6918H5.89931C5.2698 17.6918 4.7589 17.1593 4.7589 16.5019C4.7589 15.845 5.2698 15.3125 5.89931 15.3125H30.9811C31.6106 15.3125 32.121 15.845 32.121 16.5019C32.121 17.1593 31.6106 17.6918 30.9811 17.6918Z" fill="white"/>
<path d="M20.8981 2.82115H3.78838C3.17434 2.82115 2.677 2.35469 2.677 1.77995C2.677 1.2052 3.17434 0.739258 3.78838 0.739258H20.8981C21.5116 0.739258 22.0089 1.2052 22.0089 1.77995C22.0089 2.35469 21.5116 2.82115 20.8981 2.82115Z" fill="white"/>
</svg>
