<svg width="28" height="28" viewBox="0 0 28 28" fill="none" xmlns="http://www.w3.org/2000/svg">
<path d="M22.4248 5.58348C22.8223 5.2051 23.3512 4.99591 23.8999 5.00006C24.4487 5.00421 24.9744 5.22138 25.366 5.60574C25.7577 5.9901 25.9848 6.51158 25.9993 7.06015C26.0138 7.60873 25.8146 8.14148 25.4438 8.546L14.1862 22.625C13.9926 22.8335 13.759 23.0008 13.4993 23.117C13.2396 23.2331 12.9591 23.2957 12.6746 23.301C12.3902 23.3062 12.1076 23.2541 11.8437 23.1476C11.5799 23.0412 11.3402 22.8826 11.139 22.6814L3.6735 15.2159C3.4656 15.0222 3.29885 14.7886 3.18319 14.529C3.06753 14.2694 3.00534 13.9892 3.00033 13.7051C2.99532 13.4209 3.04758 13.1387 3.15401 12.8752C3.26044 12.6117 3.41885 12.3724 3.61979 12.1714C3.82073 11.9705 4.06008 11.8121 4.32357 11.7057C4.58706 11.5992 4.86929 11.547 5.15341 11.552C5.43754 11.557 5.71775 11.6192 5.97732 11.7349C6.23689 11.8505 6.47051 12.0173 6.66423 12.2252L12.5723 18.1304L22.3712 5.64556L22.4248 5.58348Z" fill="white"/>
</svg>
