<svg width="64" height="64" viewBox="0 0 64 64" fill="none" xmlns="http://www.w3.org/2000/svg">
<path fill-rule="evenodd" clip-rule="evenodd" d="M25.4659 16.771C24.4155 17.2224 23.4211 17.8259 22.4854 18.5813C20.16 20.4586 18.6454 22.848 17.984 25.7706C15.6161 26.304 13.6747 27.5413 12.1387 29.4613C10.6027 31.3813 9.83472 33.5573 9.83472 36.0106C9.83472 38.8693 10.8374 41.3226 12.8214 43.3493C14.8054 45.3973 17.216 46.4853 20.0747 46.6133H42.6953L40.6261 43.0293H20.0747C18.24 42.9226 16.6827 42.1973 15.4027 40.832C14.1227 39.4666 13.4827 37.8666 13.4827 36.0106C13.4827 34.24 14.1014 32.704 15.296 31.4026C16.4907 30.1013 17.9841 29.3333 19.7761 29.12H20.9067C21.184 29.12 21.3334 28.992 21.3334 28.736L21.504 27.52C21.7174 25.216 22.6987 23.2746 24.4267 21.7173C25.2966 20.9235 26.2552 20.3293 27.294 19.9373L25.4659 16.771ZM46.1325 42.5667C47.0532 42.1989 47.8819 41.6179 48.6187 40.832C49.92 39.4666 50.56 37.8453 50.56 36.0106C50.56 34.1333 49.856 32.5333 48.4694 31.168C47.0827 29.8026 45.44 29.12 43.52 29.12H40.1067C39.872 29.12 39.744 28.992 39.744 28.736L39.5947 27.52C39.36 25.216 38.3574 23.2746 36.608 21.7173C35.493 20.7247 34.2653 20.044 32.9194 19.681L30.6592 15.7661C33.5414 15.7973 36.1146 16.714 38.3787 18.496C40.6827 20.3093 42.176 22.656 42.8587 25.5146H43.5627C45.4827 25.5146 47.2534 25.984 48.8747 26.9013C50.496 27.8186 51.7974 29.0986 52.736 30.72C53.6747 32.3413 54.1654 34.0906 54.1654 36.0106C54.1654 37.888 53.7174 39.6373 52.8214 41.2373C51.9254 42.8373 50.688 44.1173 49.1307 45.0773C48.7459 45.3145 48.3506 45.5244 47.9455 45.7069L46.1325 42.5667Z" fill="#B1B4B8"/>
<rect x="18.7612" y="11.9204" width="3.83386" height="47.9746" rx="1.91693" transform="rotate(-30 18.7612 11.9204)" fill="#B1B4B8"/>
</svg>
