<svg width="30" height="34" viewBox="0 0 30 34" fill="none" xmlns="http://www.w3.org/2000/svg">
<path d="M29.9452 30.5683C29.9394 30.5163 29.3515 25.31 28.4244 19.9535C27.8779 16.7959 27.3214 14.2005 26.7705 12.2393C26.2586 10.4174 25.534 8.23997 24.4653 7.56805C23.3561 6.87105 21.0068 5.81527 20.0522 5.3953L19.9068 2.19945L19.9058 2.19952C19.8708 0.688854 17.3472 0 15 0C12.6528 0 10.1291 0.688854 10.0941 2.19945L10.0932 2.19937L9.94774 5.39523C8.99307 5.81527 6.64378 6.87105 5.53449 7.56805C4.46592 8.2399 3.74137 10.4174 3.22947 12.2392C2.67852 14.2005 2.122 16.7959 1.57554 19.9534C0.648401 25.3099 0.0604999 30.5163 0.0547035 30.5682L0 31.0556L0.447338 31.2773C0.496608 31.3017 1.67176 31.875 3.25817 31.875C3.68616 31.875 4.11046 31.8331 4.5191 31.7505L5.021 31.649L5.09027 31.1525C5.69817 26.796 6.78079 20.4011 7.73003 17.1429C7.82951 18.9046 7.37398 21.3747 6.95729 23.6345C6.49735 26.1288 6.06291 28.4848 6.26165 30.1379L6.30223 30.4751L6.59654 30.6555C6.61741 30.6683 6.69928 30.7167 6.85223 30.7876C6.80492 31.6185 6.9002 32.397 6.90513 32.4366L6.94969 32.7926L7.26965 32.9682C7.46216 33.074 9.31397 34 15 34C20.6859 34 22.5377 33.074 22.7302 32.9684L23.0502 32.7928L23.0947 32.4368C23.0997 32.397 23.1951 31.6178 23.1476 30.7865C23.3062 30.7136 23.3877 30.6652 23.4034 30.6555L23.6977 30.4752L23.7383 30.138C23.937 28.4848 23.5026 26.1288 23.0427 23.6345C22.626 21.3748 22.1705 18.9046 22.27 17.143C23.2192 20.4012 24.3018 26.796 24.9097 31.1526L24.979 31.649L25.4809 31.7505C25.8896 31.8332 26.3138 31.8751 26.7418 31.8751C28.3285 31.8751 29.5035 31.3017 29.5527 31.2773L30 31.0556L29.9452 30.5683ZM11.4691 3.84129C12.4196 4.2619 13.7354 4.46207 15 4.46207C16.2645 4.46207 17.5802 4.26197 18.5308 3.84129L18.6043 5.45721C17.9612 5.78099 16.539 6.39497 15 6.39497C13.4699 6.39497 12.041 5.77957 11.3956 5.45608L11.4691 3.84129ZM15 1.41667C17.0611 1.41667 18.2391 1.96881 18.4413 2.23082C18.2391 2.49298 17.061 3.04541 15 3.04541C12.9389 3.04541 11.7608 2.49298 11.5586 2.23082C11.7608 1.96881 12.9388 1.41667 15 1.41667ZM21.692 31.8579C20.9717 32.0972 19.014 32.5833 15 32.5833C10.9859 32.5833 9.02821 32.0972 8.30786 31.8579C8.29728 31.6946 8.28837 31.4941 8.288 31.2789C8.37046 31.3003 8.45588 31.3219 8.54515 31.3433C10.257 31.7551 12.4287 31.964 15 31.964C18.2766 31.964 20.4129 31.6131 21.712 31.2745C21.7116 31.4914 21.7027 31.6936 21.692 31.8579ZM26.7418 30.4583C26.5835 30.4583 26.4263 30.451 26.271 30.4364C25.868 27.6307 24.2228 16.6982 22.7687 14.5361L22.1787 13.6588L21.5675 14.5222C20.2365 16.4022 20.938 20.2067 21.6166 23.8859C22.0029 25.9811 22.4013 28.1419 22.3299 29.5992C21.3736 29.991 19.0036 30.5474 15 30.5474C10.9965 30.5474 8.62644 29.991 7.67018 29.5992C7.59874 28.1419 7.99717 25.9811 8.3835 23.8859C9.06197 20.2067 9.76355 16.4022 8.43255 14.5222L7.82132 13.6588L7.23132 14.5361C5.77714 16.6981 4.13198 27.6306 3.72891 30.4364C3.57356 30.451 3.41641 30.4583 3.25817 30.4583C2.55165 30.4583 1.94571 30.3117 1.55779 30.1868C1.73153 28.7283 2.25676 24.5089 3.00435 20.1897C4.68865 10.4581 5.96676 8.9806 6.31809 8.75968C7.36217 8.10369 9.73928 7.04027 10.6134 6.65621C11.3286 7.02879 13.0622 7.81171 14.9999 7.81171C16.9376 7.81171 18.6712 7.02879 19.3865 6.65621C20.2604 7.0402 22.637 8.10333 23.6815 8.7596C24.033 8.98053 25.3106 10.4576 26.9945 20.1841C27.7424 24.504 28.2681 28.7275 28.4421 30.1868C28.0537 30.3118 27.448 30.4583 26.7418 30.4583Z" fill="#678CD4"/>
</svg>
