<svg width="26" height="32" viewBox="0 0 26 32" fill="none" xmlns="http://www.w3.org/2000/svg">
<path d="M1.39165 2.055C1.38417 1.91913 1.40449 1.78315 1.45138 1.65541C1.49828 1.52766 1.57075 1.41083 1.66436 1.31206C1.75798 1.2133 1.87077 1.13468 1.99582 1.08102C2.12088 1.02737 2.25557 0.999795 2.39165 1H23.6083C23.7444 0.999795 23.8791 1.02737 24.0041 1.08102C24.1292 1.13468 24.242 1.2133 24.3356 1.31206C24.4292 1.41083 24.5017 1.52766 24.5486 1.65541C24.5955 1.78315 24.6158 1.91913 24.6083 2.055L23.0533 30.055C23.0392 30.3106 22.9277 30.551 22.7417 30.7268C22.5556 30.9026 22.3093 31.0004 22.0533 31H17.2233C16.9783 31 16.7417 30.9101 16.5586 30.7473C16.3755 30.5844 16.2586 30.36 16.23 30.1167L13.9933 11.1083C13.855 9.93167 12.145 9.93167 12.0067 11.1083L9.76999 30.1167C9.7414 30.36 9.62445 30.5844 9.44133 30.7473C9.25822 30.9101 9.02169 31 8.77665 31H3.94665C3.69069 31.0004 3.44433 30.9026 3.2583 30.7268C3.07227 30.551 2.96073 30.3106 2.94665 30.055L1.39165 2.055V2.055Z" stroke="#678CD4" stroke-width="1.8"/>
<path d="M1.33325 8.5H3.83325C4.71731 8.5 5.56515 8.14881 6.19027 7.52369C6.8154 6.89857 7.16659 6.05072 7.16659 5.16667V1M23.8333 8.5H22.1666C21.2825 8.5 20.4347 8.14881 19.8096 7.52369C19.1844 6.89857 18.8333 6.05072 18.8333 5.16667V1" stroke="#678CD4" stroke-width="1.8"/>
</svg>
